<svg width="134" height="23" viewBox="0 0 134 23" fill="none" xmlns="http://www.w3.org/2000/svg">
<path d="M5.996 17.132C4.60267 17.132 3.50267 16.9193 2.696 16.494C1.88933 16.054 1.288 15.24 0.892 14.052C0.496 12.864 0.298 11.1333 0.298 8.86C0.298 6.704 0.503333 5.03933 0.914 3.866C1.32467 2.678 1.948 1.84933 2.784 1.38C3.62 0.910666 4.73467 0.675999 6.128 0.675999C6.80267 0.675999 7.57267 0.734666 8.438 0.851999C9.318 0.954666 10.0953 1.094 10.77 1.27V2.568C10.2567 2.49467 9.59667 2.42133 8.79 2.348C7.98333 2.27467 7.184 2.238 6.392 2.238C5.292 2.238 4.434 2.42133 3.818 2.788C3.202 3.14 2.74733 3.79267 2.454 4.746C2.17533 5.68467 2.036 7.06333 2.036 8.882C2.036 10.7593 2.168 12.1747 2.432 13.128C2.71067 14.0667 3.15067 14.712 3.752 15.064C4.35333 15.4013 5.21867 15.57 6.348 15.57C8.21067 15.57 9.68467 15.4747 10.77 15.284V16.604C10.0953 16.7653 9.33267 16.8973 8.482 17C7.646 17.088 6.81733 17.132 5.996 17.132ZM17.9044 17.132C16.7017 17.132 15.7337 16.9633 15.0004 16.626C14.267 16.2887 13.717 15.6873 13.3504 14.822C12.9984 13.942 12.8224 12.7027 12.8224 11.104C12.8224 9.49067 13.0057 8.25133 13.3724 7.386C13.739 6.506 14.2817 5.90467 15.0004 5.582C15.719 5.25933 16.687 5.098 17.9044 5.098C19.107 5.098 20.075 5.26667 20.8084 5.604C21.5417 5.92667 22.0917 6.528 22.4584 7.408C22.825 8.27333 23.0084 9.50533 23.0084 11.104C23.0084 12.7027 22.825 13.942 22.4584 14.822C22.0917 15.6873 21.5417 16.2887 20.8084 16.626C20.0897 16.9633 19.1217 17.132 17.9044 17.132ZM17.9044 15.702C18.711 15.702 19.3417 15.5993 19.7964 15.394C20.2657 15.174 20.625 14.734 20.8744 14.074C21.1237 13.414 21.2484 12.424 21.2484 11.104C21.2484 9.784 21.1237 8.80133 20.8744 8.156C20.6397 7.496 20.2877 7.06333 19.8184 6.858C19.349 6.638 18.711 6.528 17.9044 6.528C17.083 6.528 16.4377 6.638 15.9684 6.858C15.5137 7.06333 15.1617 7.496 14.9124 8.156C14.6777 8.80133 14.5604 9.784 14.5604 11.104C14.5604 12.424 14.6777 13.414 14.9124 14.074C15.1617 14.734 15.5137 15.174 15.9684 15.394C16.4377 15.5993 17.083 15.702 17.9044 15.702ZM29.7436 17.132C28.2916 17.132 27.221 16.6553 26.5316 15.702C25.857 14.7487 25.5196 13.2527 25.5196 11.214C25.5196 9.74733 25.6663 8.56667 25.9596 7.672C26.253 6.77733 26.7223 6.12467 27.3676 5.714C28.013 5.30333 28.8783 5.098 29.9636 5.098C31.0783 5.098 32.281 5.33267 33.5716 5.802V0.214H35.3096V17H33.9016L33.5716 15.812C33.2196 16.12 32.655 16.4207 31.8776 16.714C31.1003 16.9927 30.389 17.132 29.7436 17.132ZM30.2496 15.702C30.8656 15.702 31.4303 15.614 31.9436 15.438C32.4716 15.2473 33.0143 15.0053 33.5716 14.712V7.034C32.8823 6.82867 32.3176 6.682 31.8776 6.594C31.4523 6.506 30.9683 6.462 30.4256 6.462C29.6483 6.462 29.0323 6.60867 28.5776 6.902C28.123 7.18067 27.7856 7.65733 27.5656 8.332C27.3603 9.00667 27.2576 9.94533 27.2576 11.148C27.2576 12.7907 27.485 13.964 27.9396 14.668C28.3943 15.3573 29.1643 15.702 30.2496 15.702ZM43.0799 17.132C41.8186 17.132 40.8359 16.9487 40.1319 16.582C39.4426 16.2153 38.9439 15.5993 38.6359 14.734C38.3279 13.8687 38.1739 12.6587 38.1739 11.104C38.1739 9.53467 38.3279 8.31733 38.6359 7.452C38.9586 6.58667 39.4719 5.978 40.1759 5.626C40.8799 5.274 41.8553 5.098 43.1019 5.098C44.1726 5.098 45.0306 5.21533 45.6759 5.45C46.3213 5.68467 46.7979 6.088 47.1059 6.66C47.4139 7.21733 47.5679 7.99467 47.5679 8.992C47.5679 9.98933 47.2746 10.7153 46.6879 11.17C46.1159 11.61 45.2946 11.83 44.2239 11.83H39.9119C39.9266 12.842 40.0293 13.6267 40.2199 14.184C40.4106 14.7267 40.7626 15.13 41.2759 15.394C41.7893 15.6433 42.5299 15.768 43.4979 15.768H47.2819V16.824C46.4899 16.9267 45.7859 17 45.1699 17.044C44.5539 17.1027 43.8573 17.132 43.0799 17.132ZM44.0699 10.686C44.7446 10.686 45.2359 10.5613 45.5439 10.312C45.8519 10.0627 46.0059 9.63 46.0059 9.014C46.0059 8.03133 45.7859 7.35667 45.3459 6.99C44.9206 6.60867 44.1726 6.418 43.1019 6.418C42.2513 6.418 41.5986 6.54267 41.1439 6.792C40.6893 7.04133 40.3666 7.46667 40.1759 8.068C39.9853 8.66933 39.8899 9.542 39.8899 10.686H44.0699Z" fill="#00D1B2"/>
<path d="M50.2303 0.72H57.1163C59.1989 0.72 60.6656 1.424 61.5163 2.832C62.3669 4.24 62.7923 6.24933 62.7923 8.86C62.7923 11.6027 62.3229 13.6487 61.3843 14.998C60.4456 16.3327 59.0229 17 57.1163 17H50.2303V0.72ZM56.7863 14.074C57.7689 14.074 58.4729 13.6487 58.8983 12.798C59.3236 11.9327 59.5363 10.62 59.5363 8.86C59.5363 7.48133 59.4336 6.418 59.2283 5.67C59.0376 4.90733 58.7443 4.37933 58.3483 4.086C57.9523 3.79267 57.4316 3.646 56.7863 3.646H53.4863V14.074H56.7863ZM69.7865 17.11C68.4519 17.11 67.4032 16.934 66.6405 16.582C65.8779 16.23 65.3205 15.6213 64.9685 14.756C64.6312 13.8907 64.4625 12.6733 64.4625 11.104C64.4625 9.49067 64.6239 8.25133 64.9465 7.386C65.2692 6.506 65.7972 5.89 66.5305 5.538C67.2785 5.186 68.3272 5.01 69.6765 5.01C70.8792 5.01 71.8252 5.12733 72.5145 5.362C73.2039 5.59667 73.7025 6.00733 74.0105 6.594C74.3332 7.18067 74.4945 8.00933 74.4945 9.08C74.4945 10.224 74.1645 11.038 73.5045 11.522C72.8592 12.006 71.9132 12.248 70.6665 12.248H67.6965C67.7259 12.8787 67.8212 13.37 67.9825 13.722C68.1439 14.0593 68.4299 14.3087 68.8405 14.47C69.2512 14.6167 69.8525 14.69 70.6445 14.69H74.0985V16.604C73.3212 16.7653 72.6172 16.89 71.9865 16.978C71.3559 17.066 70.6225 17.11 69.7865 17.11ZM70.3365 10.312C70.7912 10.312 71.1139 10.224 71.3045 10.048C71.5099 9.85733 71.6125 9.542 71.6125 9.102C71.6125 8.45667 71.4659 8.00933 71.1725 7.76C70.8792 7.496 70.3805 7.364 69.6765 7.364C69.1632 7.364 68.7599 7.452 68.4665 7.628C68.1879 7.78933 67.9825 8.08267 67.8505 8.508C67.7185 8.93333 67.6525 9.53467 67.6525 10.312H70.3365ZM80.327 17.044C79.0803 17.044 78.149 16.736 77.533 16.12C76.9316 15.4893 76.631 14.514 76.631 13.194V0.214H79.887V12.71C79.887 13.3407 79.9823 13.7953 80.173 14.074C80.3636 14.338 80.679 14.4993 81.119 14.558L82.021 14.69V17.044H80.327ZM83.9234 3.448C83.7768 3.448 83.6594 3.41133 83.5714 3.338C83.4981 3.25 83.4614 3.14 83.4614 3.008V0.851999C83.4614 0.543999 83.6154 0.389999 83.9234 0.389999H86.4314C86.5634 0.389999 86.6661 0.433999 86.7394 0.522C86.8128 0.609999 86.8494 0.719999 86.8494 0.851999V3.008C86.8494 3.30133 86.7101 3.448 86.4314 3.448H83.9234ZM83.5274 5.186H86.7834V17H83.5274V5.186ZM88.2953 5.186H91.6613L94.2133 13.986L96.8313 5.186H100.153L96.0173 17H92.2553L88.2953 5.186ZM106.246 17.11C104.911 17.11 103.862 16.934 103.1 16.582C102.337 16.23 101.78 15.6213 101.428 14.756C101.09 13.8907 100.922 12.6733 100.922 11.104C100.922 9.49067 101.083 8.25133 101.406 7.386C101.728 6.506 102.256 5.89 102.99 5.538C103.738 5.186 104.786 5.01 106.136 5.01C107.338 5.01 108.284 5.12733 108.974 5.362C109.663 5.59667 110.162 6.00733 110.47 6.594C110.792 7.18067 110.954 8.00933 110.954 9.08C110.954 10.224 110.624 11.038 109.964 11.522C109.318 12.006 108.372 12.248 107.126 12.248H104.156C104.185 12.8787 104.28 13.37 104.442 13.722C104.603 14.0593 104.889 14.3087 105.3 14.47C105.71 14.6167 106.312 14.69 107.104 14.69H110.558V16.604C109.78 16.7653 109.076 16.89 108.446 16.978C107.815 17.066 107.082 17.11 106.246 17.11ZM106.796 10.312C107.25 10.312 107.573 10.224 107.764 10.048C107.969 9.85733 108.072 9.542 108.072 9.102C108.072 8.45667 107.925 8.00933 107.632 7.76C107.338 7.496 106.84 7.364 106.136 7.364C105.622 7.364 105.219 7.452 104.926 7.628C104.647 7.78933 104.442 8.08267 104.31 8.508C104.178 8.93333 104.112 9.53467 104.112 10.312H106.796ZM113.09 5.186H115.598L116.346 6.99C116.815 6.374 117.314 5.89733 117.842 5.56C118.385 5.208 119.001 5.032 119.69 5.032C120.071 5.032 120.394 5.06867 120.658 5.142V8.486C119.895 8.41267 119.433 8.376 119.272 8.376C118.641 8.376 118.099 8.47867 117.644 8.684C117.189 8.88933 116.757 9.212 116.346 9.652V17H113.09V5.186ZM127.365 17C125.414 17 124.167 15.944 123.625 13.832L121.403 5.186H124.791L126.661 13.172C126.778 13.656 126.954 13.964 127.189 14.096C127.423 14.228 127.673 14.3087 127.937 14.338L130.071 5.186H133.371L129.851 20.036L128.795 22.214H126.089L127.365 17Z" fill="#3273DC"/>
</svg>
